<svg xmlns="http://www.w3.org/2000/svg" viewBox="0 0 34.3 27.7">
  <title>K12 Icon</title>
  <g fill="rgb(255,255,255)">
      <path class="a" d="M25,18.25Z" transform="translate(-6.1 -11)"></path>
      <path class="a" d="M37.55,18.77a.78.78,0,0,0,0-1.56.83.83,0,0,0-.77.78A.69.69,0,0,0,37.55,18.77Zm0-1.3a.67.67,0,0,1,0,1.3.59.59,0,0,1-.51-.65C36.91,17.73,37.16,17.47,37.55,17.47Z" transform="translate(-6.1 -11)"></path>
      <path class="a" d="M37.16,18.38h0c0,.13.13,0,.13,0h.13c-.13,0-.13,0-.13-.13v-.13h0a.13.13,0,0,0,.13.13c0,.13.13.13.26.13h.13a.45.45,0,0,1-.13-.26h0l.13-.13a.28.28,0,0,0-.26-.26h-.39v.13h0a.13.13,0,0,1,.13.13l-.13.39Zm.26-.52h0c.13,0,.13,0,.13.13a.13.13,0,0,1-.13.13h0Z" transform="translate(-6.1 -11)"></path>
      <path class="a" d="M39.88,21.48a6.7,6.7,0,0,1-.77-1.42l-.65-.78c-.78-.13-1.81-.25-2.07-.25a11.32,11.32,0,0,1,1.81.38c-.65,0-1.68-.38-2.2-.38h0c-.26-.26.78-1.3.13-1.82-.26-.39-1-.13-1.42-.13a5.72,5.72,0,0,1-2.08-.26h0c.13,0,.13.13.26.13-.39.13-.9,0-1.29.13a5.34,5.34,0,0,0,2.07.26h0a10.83,10.83,0,0,1,1.55.52c-.13.13-.13,0-.26.13h0c.13,0,.65,0,.65.26s-1.16,0-1.42.13h0c.13.26.64.26.77.39s-.77.38-.77.38a2.33,2.33,0,0,0-1.3.13c-.51.26-1.94,0-2.33.52a5.13,5.13,0,0,0,1.94-.39A15.67,15.67,0,0,1,35,19.28c-.13.13-.38.13-.38.26h0c.13.13-.26.65-.52.65,0,0,.13.13.13,0a4.74,4.74,0,0,1-1.94.39,10.75,10.75,0,0,0-2.2.52c-.52.13-1,.51-1.43.26a1,1,0,0,0-.52-.52c1-.52.13,0,.52-.13,0-.39,1.81-.52,1.81-.91-.9-.13-2.2,1.43-2.84.52,0,.13.13.26.13.39s-.39.13-.26.26h0c.26,0,.26-.26.51.13.13.13.39.38.39.64A2.75,2.75,0,0,1,28,21.1h0a1,1,0,0,0,.26.64c-.26.13-.26,0-.26.13s-.38-.39-.38-.51c-.13-.52-.39-.65-.52-1a2.83,2.83,0,0,0-.91-1.17,2.28,2.28,0,0,1,.65.52h0c0-.39-.78-.52-.78-.64s-.64-.65-.64-.78c-.26-.13-.39-.78-.65-.65,0,.39,1.16,1.3.9,1.55,0,.26.26.26.26.39.39.26.52.78.78,1a6.39,6.39,0,0,1-1.29-1.81h.13a2.28,2.28,0,0,0-.52-.65h0c-.39-.39-1-.65-1-1.17a3.18,3.18,0,0,1-1-1.29c-.26-.39-1.17-.91-1.3-1.55.26,0-.39-.39-.52-.52s-1.29-1.68-1.55-1.68c.13.38-.26,0-.39,0a.13.13,0,0,0,.13.13c-.13.12-.65-.52-.77-.78h0l.12-.13a.45.45,0,0,0-.38-.13c0,.13-.13.26,0,.52s.38,0,.38.26c-.12,0-.77-.65-.77-.26,0,.13.52.52.52.64s-.26-.38-.39-.25c.26.64,1.16,1,1.29,1.81l-.39-.39c.13.13.52.65.65.78-.26,0,.91,4.53.91,4.92-1-.78-2.07-1.43-3.11-2.21a14,14,0,0,1-2.46-1.29c-.26-.65-1.68-.52-1.81-1.16H13v-.13h0c-.26-.13-.39-.26-.65-.26h0c-.13,0-.13-.13-.26-.13h-.13a.13.13,0,0,0-.13-.13s0-.13-.12-.13h-.13l-.13-.13h0A5,5,0,0,0,10,12.68v.13c-.13,0-.26-.13-.39-.26H9.46v-.13h0a.47.47,0,0,1-.38-.13h0A.13.13,0,0,1,9,12.16H9A.12.12,0,0,0,8.82,12H8.69c.13,0,0,0-.13-.13,0,.13-.26,0-.26-.13a9,9,0,0,0-1-.39h0a.17.17,0,0,0-.25,0H7c.51.13.9.39,1.29.52h.13c0,.13.26.25.39.25h0l.13.13h.13c.13.13.26.13.26.26a3,3,0,0,1,.64.39v.26c-.13-.13-.39-.13-.52-.26s-.38-.26-.64-.39a.13.13,0,0,1-.13-.13h0c.13,0,.13.13.26.13H9A1.94,1.94,0,0,0,8,12.16c-.26-.12-.39-.25-.65-.25h0c-.26-.13-.51-.13-.64-.26s0-.26.13-.26H6.75v.26a2.2,2.2,0,0,0-.65-.26h0l.13.13a.34.34,0,0,1,.39.39v.25h0a1,1,0,0,0,.51.26c.13,0,.13.13.26.13v-.26c.13,0,.13.13.26.13a4.33,4.33,0,0,1,.78.39c.13.13.26.13.39.26L9,13.2a1.31,1.31,0,0,0,.39.13l.12.13h.13a1,1,0,0,1,.52.26c.26.52,1.43.9,1.81,1.16.65.39,2.2,1,2.59,1.69h-.26c1,1,2.46,1.55,3.5,2.58.52.39,1.16.91,1.68,1.3a3.13,3.13,0,0,0,1,.78c.39.13.39.25.26.38s-.26.39-.13.39h0c0-.26.26-.39.38-.52s0,.52-.12.65a3.67,3.67,0,0,1-1.95-.52A23.16,23.16,0,0,0,16.58,21a12.3,12.3,0,0,0-2.84-.39.63.63,0,0,0-.52,0h.13l-.26.13c.78-.39,1.55.26,2.33.26h0c-.13,0-.13,0-.26-.13a5.17,5.17,0,0,1,1.94.39c-.26,0,0,.13.13.13s.39,0,.65,0c.77.25,1.68.38,2.46.64-.26,0-.65-.26-.91-.13h0c0,.13.78.39.91.52-.13.52-1.43,0-1.81-.13A6.86,6.86,0,0,1,17,21.87l.13.13a2.17,2.17,0,0,0-1.29-.39s-.13,0,.13.13H15v-.51h.65c.26-.13.77.13,1.16.13a4.28,4.28,0,0,0,1.69.25h0c-.13-.38-1.69-.25-2.08-.51h.13c-.13-.26-.38-.13-.51-.13h-.26a.13.13,0,0,1-.13-.13.13.13,0,0,0-.13.13h0c.13,0,.39.13.52.13a4.62,4.62,0,0,0-2.33.26h0c.13,0,.26.12.13.25s-.52-.13-.65.13h.52a3.11,3.11,0,0,1-.91.39,3.45,3.45,0,0,1-1.55.39c-.13,0-.13.13-.13.26s0,.26.13.26a.48.48,0,0,1,.39.13c.38.13.64.13.77.39a2.15,2.15,0,0,1,.26,1.16v9.45c0,.78-.13,1.29-.52,1.55S11.54,36,11,36c-.13,0-.13.13-.13.39s0,.39.13.39h4.92c.13,0,.13-.13.13-.39v-.26a.45.45,0,0,0-.26-.13c-.52-.13-.78-.26-.91-.65a4.35,4.35,0,0,1-.13-1.42V31.58a1,1,0,0,1,.65.26l1.81,2.07a6.81,6.81,0,0,1,1.17,1.55c0,.13,0,.26-.13.26s-.13.13-.26.13a.34.34,0,0,0-.39.39c0,.13,0,.26.26.26h5.31c.12,0,.12-.13.12-.39s0-.39-.12-.39a3.25,3.25,0,0,1-2-.64,15.24,15.24,0,0,1-1.42-1.3l-3.11-3.36h0c.52-.52,1.3-1.17,2.07-1.82a15.69,15.69,0,0,1,1.69-1.29,2.91,2.91,0,0,1,1.16-.39h0a2.93,2.93,0,0,0-.13.91l.13.26s-.9,3.1-.65,3.36c.13-.78.13-.13.13,0h0c.13-.65.26.65.26.78a2.1,2.1,0,0,0,.26,1.55h0a2.7,2.7,0,0,1,.26-.78c0-.12,0-.12.13,0h-.13c0,.13.13.13.13.26a10.28,10.28,0,0,1,.65-2.71,2.84,2.84,0,0,1,.39-.65,1,1,0,0,1,.64.26h0a.7.7,0,0,0-.26,1c0,.26.26.26.52.39s.26.26.52.52l-.13-.39c.26,0,.26.52.52.52V32.1c.13,0,.13.13.26.13,0-.52.13-.13.39.26s.38.77.64,1.16c.26.65.52.78.26,1.3.13,0,.91.38.78.51.13.26.77,2.2,1,2.2a4.07,4.07,0,0,1-.38-1.81c.12,0-.78-1.81-.78-2.2,0,0,.26.52.39.52h0a8.52,8.52,0,0,1-.52-1.68c.26.13.26.77.52.9h0c0-.13-.39-1-.26-1.16.13.13.13.26.26.39,0-.39-.65-1.69-.39-1.95s.13.78.13.78h0c.13,0,.13-.26.13-.26s.13.26.26.39c0-.13-.26-.78-.13-.91s.26.13.26.26v-.38a.12.12,0,0,0,.13.12c-.39-.64.64.52.64.52S28.36,30,28.36,30c.39.13.78.77,1,1a1.1,1.1,0,0,1,.26.91,8.49,8.49,0,0,0,.13,1.81h0c.13-.13.13-.26,0-.52a.13.13,0,0,0,.13.13h0c.26.52-.52,1.56.26,1.69V35c-.13-.52-.26-1.56.25-1.43v-.26a.45.45,0,0,1,.13.26c.39-.26.39,1,.39,1a.48.48,0,0,1,.13-.39c0,.26-.26.91.13.91,0-.13.13-.65,0-.78.13,0,.13.13.26.26V34.3l-.13-.13h0c0-.13-.26-1,.65-.39.51.52,1.16.91,1.68,1.43.13.12.65.64.78.64s-.13-.13,0-.26c.64.65,1.42,1.17,2.2,1.82.39.25,1,.38,1.29.64h-.13a1,1,0,0,1,.65.26v-.26a2.84,2.84,0,0,1,.39.65c.64-.13-1.56-2.72-1.56-2.85-.64-1.16-1.55-1.94-2.2-3.1v-.13c-.26-.13-.51-.39-.26-.52h0s-.64-.39-.38-.39c-.13-.13-1-.78-.52-.65-.13-.13-1-.77-.91-.9s.52.39.78.51c0-.12-1.42-2.07-.91-1.81H33a.4.4,0,0,0-.26-.13s0,.26-.26.13l.13-.13H32.5c0-.13-.25-.51-.12-.64s.77.38.9.51c0-.26-.39-.38-.52-.64s.78.64.78.77a.13.13,0,0,1-.13-.13c.26.13.52.52.65.65a3.11,3.11,0,0,0-.91-.39,5.6,5.6,0,0,1,1.3.91c-.13,0-.13,0-.26-.13h0l.13.13c.13,0,.26.13.39.26a2.45,2.45,0,0,0-1-.26h0c.13.13.52,0,.65.26a.45.45,0,0,1,.13.26h0c-.13-.13-.13-.13-.13-.26.39,0,.77.52,1,.77h0a.41.41,0,0,0-.13-.25c.13,0,.26.12.52.12l-.13-.12c.39,0,.52.25.78.51h.26c0-.26-.13-.26-.39-.51a5.73,5.73,0,0,1,1.16.38l.26-.26c-.13,0-.26-.12-.39-.12s-.64-.13-.77-.13h.13L35.87,30c.13,0,.39,0,.39.13s.13,0,.13,0c0-.52-.52-.52-.78-.52h0l.39.26c-.26.13-1-.52-1-.78-.13,0-1.81-1.42-1.68-1.68-.13-.13-.39-.26,0,0h0c.13-.13.39.26.39.26s-.26-.26-.39-.26h0a.4.4,0,0,0,.26.13c0,.13.39.39.91.52h-.13a1,1,0,0,1,.51.25,2.2,2.2,0,0,0,.65.26c-.26,0-.39-.13-.65-.26s-.25-.12-.51-.12h0a16.12,16.12,0,0,0,2.59,1.16h.38C37,29.12,36,29,36,28.6c.13,0,.39.26.52.26.13-.39-1.3-1-1.43-.9h0c.13.13.13.13.26.13h-.13c-.13.25.39.25.39.25h-.13s.13,0,0,.13-1.29-.64-1.42-.64c.13,0,.13,0,.13-.13a2.84,2.84,0,0,0-.65-.39c0-.13.39-.26.39-.26a.86.86,0,0,1,.78.13c.51.26,1.16.39,1.29,1,.39.38.78,0,.26-.39-.26-.26-.65-.65-1-.65a1.79,1.79,0,0,0,.52.39,6.94,6.94,0,0,1-1.68-.91c-.13-.26.13-.26.26-.39.64-.38,1.16-.77,1.81-1.16a18.1,18.1,0,0,0,2.07-1.3c.39,0,.91-.77,1-1s.25-.39.38-.52,0-.26.26-.39A.13.13,0,0,0,40,22c0-.13.13-.64.13-.77s0,.13.13.25l.13-.12C40,21.87,39.88,21.48,39.88,21.48ZM15.29,16.05h0l.13.13Zm.26.26Zm.9.64c-.25-.25-.51-.38-.64-.51.13,0,.64.51.64.51Zm1.43.91c-.26-.26.13,0,.13.13a.13.13,0,0,1-.13-.13Zm.39.39a.65.65,0,0,1,.51.26C18.53,18.38,18.4,18.38,18.27,18.25Zm.51.26c-.13-.13.26.13,0,0Zm1.56,1.16Zm-6.47,2.07h0c0-.13.13-.13.25-.26A.27.27,0,0,1,13.87,21.74Zm20.84,8.55c0,.13.51.13.64.51-.52-.13-.77-.51-1.16-.77h0c0,.13.26.26.26.39.26.25-.39-.26-.39-.39h0v.13c-.13-.13-.13-.13,0-.13V29.9c0-.13-.13-.26,0,0V30h0c0-.13-.39-.52-.39-.65C33.93,29.77,34.45,29.9,34.71,30.29Zm-1-.78c-.13.13-.39-.39-.52-.52C33.41,29.12,33.41,29.38,33.67,29.51Zm-1.29-1.42c.12-.13.51.51.51.64-.13-.13-.13,0,0,0C32.76,28.6,32.25,28.22,32.38,28.09Zm2.71,1h0c.13.13-.13,0-.26-.13A.4.4,0,0,1,35.09,29.12Zm.91-11h0c.13,0,.13.26-.13.13C36,18.38,36,18.25,36,18.12Zm-.39.78h.13c-.13-.13,0-.26.13-.26,0,.26-.26.39-.39.51S35.48,18.9,35.61,18.9Zm-.78.9h0c.13-.26.39-.65.78-.52-.26.26-.52.91-.9.91C34.58,20.06,34.71,19.93,34.83,19.8ZM33.41,22c.13,0,.91-.39,1-.26a4.13,4.13,0,0,1-1.17.39C33.28,22,33.41,21.87,33.41,22Zm-3,.13c0,.13-.26.13-.13,0C30.3,22.26,30.3,22.13,30.43,22.13Zm1,.39c-.26.26-.91.52-.91.91-.26,0-.38-.13-.51,0,0-.39-.39-.39-.39-.78A4,4,0,0,1,31.47,22.52Zm-1,2.72c-.13,0-.26-.13,0-.13,0-.13-.26-.26-.26-.39v.13c-.12,0-.12-.52,0-.52s.39.78.26.91Zm-7.5-7.9c.13,0,.13.13.13.26C22.8,17.34,22.8,17.34,22.93,17.34Zm-.39-.52a4.86,4.86,0,0,0,.9,1.3h-.13c0,.13.26.13.26.26s.65.77.91,1.16a11.3,11.3,0,0,0,1.16,1.3l-.38.13c-.13-.26-.39-.52-.39-.65-.26-.26-.91-1.68-1.17-1.68L25.26,21,25,21.1h-.26c-.39-.26-.78-.65-.52-.65h0s-.39-.39-.39-.52a3,3,0,0,1-.77-1.42C22.93,18,22.15,17.34,22.54,16.82Zm1.94,4.41h0C24.35,21.1,24.48,21.1,24.48,21.23ZM24,20.84l.26.26L24,21h.13Zm-3-1c.13-.26.26.26.26.26S21.11,19.8,21,19.8Zm0,3.11h0a.13.13,0,0,1,.13.13H21Zm-.64-.39h0c.13,0,.13.13.26.13a.25.25,0,0,1-.39.13C20.34,22.65,20.34,22.65,20.34,22.52Zm-5.44-.39ZM19,26.53v.13H17.49c-.13,0-.13.13-.13.39s-.13.39.13.39c.65,0,.91.13.91.39s-.39.77-1.3,1.55l-1.68,1.68a1,1,0,0,1-.65.26V24.07c.13,0,.26.13.39.13h0c0-.13-.26-.26-.39-.39v-.38h0s.39.38.52.26a4.6,4.6,0,0,0,1.29.77,4.81,4.81,0,0,1,1.43.65c-.39-.13-.78-.13-1.17-.26h0c.26.26.78,0,1,.26.26,0,1.94.65,1.29.78C19.3,26,19.3,26.53,19,26.53Zm.39-.9a6.68,6.68,0,0,0-.9-.39,14.44,14.44,0,0,1-2.08-.91,12.35,12.35,0,0,0-1.68-1.16v-.91h.91a9.43,9.43,0,0,1,3.23.78.45.45,0,0,1-.38-.13h0c-.13.26,1.42.52,1.55.65a.24.24,0,0,1-.39,0h0c0,.13.26.25.26.25-.13.39-.52.91-.39,1.43C19.3,25.5,19.56,25.5,19.43,25.63Zm.26,1V26.4l.13-.51.26-.65c.26-.78.26-1.3.9-.65,0-.13-.12-.26-.12-.39H21c0,.26.13.91.13,1.56a4.11,4.11,0,0,0,.13.9Zm1.68-3.75c-.13,0-.26,0-.26-.13s.39,0,.39.13S21.5,22.91,21.37,22.91Zm.26-5.31c-.13-.26-.77-1.55-.65-1.94h0c.13,0,0-.13,0-.39.65.13.65,2.07,1.3,2.2,0-.13,0-.13-.13-.26a1.91,1.91,0,0,1,.26.52h-.13c0,.13.52.78.52,1.17h-.13c.26.77.77,1.16,1,1.81a5.26,5.26,0,0,1-1.81-1.56c.13,0,.13.26.26.26h0L22,19.28c.13,0,.13.13.26.13h0A15,15,0,0,1,21.63,17.6ZM22,19.8c-.13-.13-.26-.26-.26-.39C21.89,19.54,21.89,19.67,22,19.8Zm.13.91a2.2,2.2,0,0,1-.26-.65.48.48,0,0,1,.39.13c.26.26.52.39.65.52a1.3,1.3,0,0,0-.65-.52L22,19.93a.45.45,0,0,0-.13-.26,5.16,5.16,0,0,1,1.42.91s-.12.26,0,.26v-.13c.26,0,0,.13.13.13h-.13c-.12,0-.25-.13-.38-.26v.13l-.26-.13Zm2.72,3c-.13.25-.26.64-.52,1.16a9,9,0,0,0-.39,1c-.13.38-.26.64-.39,1a4.6,4.6,0,0,0-.13.78,2,2,0,0,1-.25.9,1.16,1.16,0,0,1-.39-.9,2,2,0,0,1,.26-1c.13-.26.25-.65.38-.9s.26-.65.39-.91a3.31,3.31,0,0,0,.26-.91c-.13.13-.26.13-.39.26a.64.64,0,0,1-.39.13l.52-.9a4.87,4.87,0,0,0,1.3-.78,1.31,1.31,0,0,1,.13.39v.13C25.13,23.17,25,23.3,24.87,23.69Zm4.66,10.09v0Zm0-.26h0v-.39Q29.73,33.52,29.53,33.52ZM29.4,28a16.49,16.49,0,0,0-2.72.13,3.43,3.43,0,0,1-.91.13,1,1,0,0,1-.51-.13c-.26-.13-.13-.39-.13-.52a1.88,1.88,0,0,1,.51-.39,5.65,5.65,0,0,1,.91-.78,6.27,6.27,0,0,0,1.3-1.55c0-.13.12-.26.12-.39a1,1,0,0,0,.13-.52.34.34,0,0,0-.38-.38,1.32,1.32,0,0,0-.78.25,3.12,3.12,0,0,1-1.3.26h-.38a2.42,2.42,0,0,1,1-.9,3,3,0,0,1,1.43-.39.86.86,0,0,1,.9.52,1.16,1.16,0,0,1,.13.64,3.17,3.17,0,0,1-.65,1.95c-.38.51-.77.77-1.16,1.29.52,0,1,.13,1.81.13h.52c.26,0,.39.13.65.13a.45.45,0,0,1,.26.13c.12.13.12.13.12.26v.39A2.22,2.22,0,0,1,29.4,28ZM30.69,34c-.13,0,.13-.26,0,0Zm.39-2.85h0c-.13,0-.13,0-.13-.26C31.08,31.06,31.08,31.06,31.08,31.19Zm0-.26c-.26,0-.13-.38-.26-.51.26,0,.26.13.26.38C31,30.8,31.08,30.67,31.08,30.93Zm5.57,6a.13.13,0,0,0,.13.13c-.52-.13-.65-.65-.78-1A2.33,2.33,0,0,1,36.65,36.89Zm-4.53-5.44c.13.13,1.16,1.55,1.42,1.43h0c-.26,0-.26-.13-.26-.26l.26.26a5.78,5.78,0,0,1,1.17,1.29c.12.13.25.39.38.52-.26,0-1.29-1-1.16-1.3h.13l-.13-.26a2.14,2.14,0,0,1-.39-.25.12.12,0,0,0-.13.12,3.14,3.14,0,0,1-.78-.64c0,.26,1.43,1.42,1.69,1.68s1,.91,1.42,1.29c-.13.13-.52-.25-.52-.25a4.73,4.73,0,0,1,.91,1.55c-.52-.39-4.66-4.14-4.14-4.66.13,0,.13,0,.26.13V32c.13,0,.25.13.38.26,0-.26-.25-.26-.25-.39,0,.13-.13.13-.26-.13.26.52-.39-.26-.39-.39l.13-.13s-.26-.26-.39-.26v.13c-.26-.39.13-.13.39-.13h0c-.39-.38-.39.13-.39-.51C31.47,30.67,31.86,31.45,32.12,31.45ZM32,30.93c-.39-.13-.39-.38-.52-.64C31.6,30.42,32.12,30.8,32,30.93Zm1.55-2.71s-.65-.26-.52-.39S33.67,28.22,33.54,28.22Zm3-6h0c-.26.26-.91.91-1.17.78-.26.52-1.42.65-1.68,1.16-.39.13-.78.65-1,.78-.25.39-1.29.52-1.68.52a.13.13,0,0,0,.13.13c-.13,0-.39-.52-.52-.39-.13-.26-.64-1.17-.38-1.3a7.13,7.13,0,0,1,1.16-.9l-.26.26h0a2.72,2.72,0,0,0,.78-.52,1.12,1.12,0,0,0,.64-.13.45.45,0,0,0,.26-.13c.13-.26.65-.26.91-.26a7.13,7.13,0,0,1,2.85-.13C36.65,22.13,36.65,22.13,36.52,22.26Zm-.78-2.85c.26,0,1.81.13,1.94.52-.26.13-.64,0-.77,0-.52-.13-1,.26-1.56.13,0-.26.39-.91.65-.78s1.68,0,1.81.39c-.39,0-.77-.26-1.29-.26Z" transform="translate(-6.1 -11)"></path>
  </g>
  <g fill="rgb(255,255,255)">
      <path class="a" d="M25,18.25Z" transform="translate(-6.1 -11)"></path>
      <path class="a" d="M37.55,18.77a.78.78,0,0,0,0-1.56.83.83,0,0,0-.77.78A.69.69,0,0,0,37.55,18.77Zm0-1.3a.67.67,0,0,1,0,1.3.59.59,0,0,1-.51-.65C36.91,17.73,37.16,17.47,37.55,17.47Z" transform="translate(-6.1 -11)"></path>
      <path class="a" d="M37.16,18.38h0c0,.13.13,0,.13,0h.13c-.13,0-.13,0-.13-.13v-.13h0a.13.13,0,0,0,.13.13c0,.13.13.13.26.13h.13a.45.45,0,0,1-.13-.26h0l.13-.13a.28.28,0,0,0-.26-.26h-.39v.13h0a.13.13,0,0,1,.13.13l-.13.39Zm.26-.52h0c.13,0,.13,0,.13.13a.13.13,0,0,1-.13.13h0Z" transform="translate(-6.1 -11)"></path>
      <path class="a" d="M39.88,21.48a6.7,6.7,0,0,1-.77-1.42l-.65-.78c-.78-.13-1.81-.25-2.07-.25a11.32,11.32,0,0,1,1.81.38c-.65,0-1.68-.38-2.2-.38h0c-.26-.26.78-1.3.13-1.82-.26-.39-1-.13-1.42-.13a5.72,5.72,0,0,1-2.08-.26h0c.13,0,.13.13.26.13-.39.13-.9,0-1.29.13a5.34,5.34,0,0,0,2.07.26h0a10.83,10.83,0,0,1,1.55.52c-.13.13-.13,0-.26.13h0c.13,0,.65,0,.65.26s-1.16,0-1.42.13h0c.13.26.64.26.77.39s-.77.38-.77.38a2.33,2.33,0,0,0-1.3.13c-.51.26-1.94,0-2.33.52a5.13,5.13,0,0,0,1.94-.39A15.67,15.67,0,0,1,35,19.28c-.13.13-.38.13-.38.26h0c.13.13-.26.65-.52.65,0,0,.13.13.13,0a4.74,4.74,0,0,1-1.94.39,10.75,10.75,0,0,0-2.2.52c-.52.13-1,.51-1.43.26a1,1,0,0,0-.52-.52c1-.52.13,0,.52-.13,0-.39,1.81-.52,1.81-.91-.9-.13-2.2,1.43-2.84.52,0,.13.13.26.13.39s-.39.13-.26.26h0c.26,0,.26-.26.51.13.13.13.39.38.39.64A2.75,2.75,0,0,1,28,21.1h0a1,1,0,0,0,.26.64c-.26.13-.26,0-.26.13s-.38-.39-.38-.51c-.13-.52-.39-.65-.52-1a2.83,2.83,0,0,0-.91-1.17,2.28,2.28,0,0,1,.65.52h0c0-.39-.78-.52-.78-.64s-.64-.65-.64-.78c-.26-.13-.39-.78-.65-.65,0,.39,1.16,1.3.9,1.55,0,.26.26.26.26.39.39.26.52.78.78,1a6.39,6.39,0,0,1-1.29-1.81h.13a2.28,2.28,0,0,0-.52-.65h0c-.39-.39-1-.65-1-1.17a3.18,3.18,0,0,1-1-1.29c-.26-.39-1.17-.91-1.3-1.55.26,0-.39-.39-.52-.52s-1.29-1.68-1.55-1.68c.13.38-.26,0-.39,0a.13.13,0,0,0,.13.13c-.13.12-.65-.52-.77-.78h0l.12-.13a.45.45,0,0,0-.38-.13c0,.13-.13.26,0,.52s.38,0,.38.26c-.12,0-.77-.65-.77-.26,0,.13.52.52.52.64s-.26-.38-.39-.25c.26.64,1.16,1,1.29,1.81l-.39-.39c.13.13.52.65.65.78-.26,0,.91,4.53.91,4.92-1-.78-2.07-1.43-3.11-2.21a14,14,0,0,1-2.46-1.29c-.26-.65-1.68-.52-1.81-1.16H13v-.13h0c-.26-.13-.39-.26-.65-.26h0c-.13,0-.13-.13-.26-.13h-.13a.13.13,0,0,0-.13-.13s0-.13-.12-.13h-.13l-.13-.13h0A5,5,0,0,0,10,12.68v.13c-.13,0-.26-.13-.39-.26H9.46v-.13h0a.47.47,0,0,1-.38-.13h0A.13.13,0,0,1,9,12.16H9A.12.12,0,0,0,8.82,12H8.69c.13,0,0,0-.13-.13,0,.13-.26,0-.26-.13a9,9,0,0,0-1-.39h0a.17.17,0,0,0-.25,0H7c.51.13.9.39,1.29.52h.13c0,.13.26.25.39.25h0l.13.13h.13c.13.13.26.13.26.26a3,3,0,0,1,.64.39v.26c-.13-.13-.39-.13-.52-.26s-.38-.26-.64-.39a.13.13,0,0,1-.13-.13h0c.13,0,.13.13.26.13H9A1.94,1.94,0,0,0,8,12.16c-.26-.12-.39-.25-.65-.25h0c-.26-.13-.51-.13-.64-.26s0-.26.13-.26H6.75v.26a2.2,2.2,0,0,0-.65-.26h0l.13.13a.34.34,0,0,1,.39.39v.25h0a1,1,0,0,0,.51.26c.13,0,.13.13.26.13v-.26c.13,0,.13.13.26.13a4.33,4.33,0,0,1,.78.39c.13.13.26.13.39.26L9,13.2a1.31,1.31,0,0,0,.39.13l.12.13h.13a1,1,0,0,1,.52.26c.26.52,1.43.9,1.81,1.16.65.39,2.2,1,2.59,1.69h-.26c1,1,2.46,1.55,3.5,2.58.52.39,1.16.91,1.68,1.3a3.13,3.13,0,0,0,1,.78c.39.13.39.25.26.38s-.26.39-.13.39h0c0-.26.26-.39.38-.52s0,.52-.12.65a3.67,3.67,0,0,1-1.95-.52A23.16,23.16,0,0,0,16.58,21a12.3,12.3,0,0,0-2.84-.39.63.63,0,0,0-.52,0h.13l-.26.13c.78-.39,1.55.26,2.33.26h0c-.13,0-.13,0-.26-.13a5.17,5.17,0,0,1,1.94.39c-.26,0,0,.13.13.13s.39,0,.65,0c.77.25,1.68.38,2.46.64-.26,0-.65-.26-.91-.13h0c0,.13.78.39.91.52-.13.52-1.43,0-1.81-.13A6.86,6.86,0,0,1,17,21.87l.13.13a2.17,2.17,0,0,0-1.29-.39s-.13,0,.13.13H15v-.51h.65c.26-.13.77.13,1.16.13a4.28,4.28,0,0,0,1.69.25h0c-.13-.38-1.69-.25-2.08-.51h.13c-.13-.26-.38-.13-.51-.13h-.26a.13.13,0,0,1-.13-.13.13.13,0,0,0-.13.13h0c.13,0,.39.13.52.13a4.62,4.62,0,0,0-2.33.26h0c.13,0,.26.12.13.25s-.52-.13-.65.13h.52a3.11,3.11,0,0,1-.91.39,3.45,3.45,0,0,1-1.55.39c-.13,0-.13.13-.13.26s0,.26.13.26a.48.48,0,0,1,.39.13c.38.13.64.13.77.39a2.15,2.15,0,0,1,.26,1.16v9.45c0,.78-.13,1.29-.52,1.55S11.54,36,11,36c-.13,0-.13.13-.13.39s0,.39.13.39h4.92c.13,0,.13-.13.13-.39v-.26a.45.45,0,0,0-.26-.13c-.52-.13-.78-.26-.91-.65a4.35,4.35,0,0,1-.13-1.42V31.58a1,1,0,0,1,.65.26l1.81,2.07a6.81,6.81,0,0,1,1.17,1.55c0,.13,0,.26-.13.26s-.13.13-.26.13a.34.34,0,0,0-.39.39c0,.13,0,.26.26.26h5.31c.12,0,.12-.13.12-.39s0-.39-.12-.39a3.25,3.25,0,0,1-2-.64,15.24,15.24,0,0,1-1.42-1.3l-3.11-3.36h0c.52-.52,1.3-1.17,2.07-1.82a15.69,15.69,0,0,1,1.69-1.29,2.91,2.91,0,0,1,1.16-.39h0a2.93,2.93,0,0,0-.13.91l.13.26s-.9,3.1-.65,3.36c.13-.78.13-.13.13,0h0c.13-.65.26.65.26.78a2.1,2.1,0,0,0,.26,1.55h0a2.7,2.7,0,0,1,.26-.78c0-.12,0-.12.13,0h-.13c0,.13.13.13.13.26a10.28,10.28,0,0,1,.65-2.71,2.84,2.84,0,0,1,.39-.65,1,1,0,0,1,.64.26h0a.7.7,0,0,0-.26,1c0,.26.26.26.52.39s.26.26.52.52l-.13-.39c.26,0,.26.52.52.52V32.1c.13,0,.13.13.26.13,0-.52.13-.13.39.26s.38.77.64,1.16c.26.65.52.78.26,1.3.13,0,.91.38.78.51.13.26.77,2.2,1,2.2a4.07,4.07,0,0,1-.38-1.81c.12,0-.78-1.81-.78-2.2,0,0,.26.52.39.52h0a8.52,8.52,0,0,1-.52-1.68c.26.13.26.77.52.9h0c0-.13-.39-1-.26-1.16.13.13.13.26.26.39,0-.39-.65-1.69-.39-1.95s.13.78.13.78h0c.13,0,.13-.26.13-.26s.13.26.26.39c0-.13-.26-.78-.13-.91s.26.13.26.26v-.38a.12.12,0,0,0,.13.12c-.39-.64.64.52.64.52S28.36,30,28.36,30c.39.13.78.77,1,1a1.1,1.1,0,0,1,.26.91,8.49,8.49,0,0,0,.13,1.81h0c.13-.13.13-.26,0-.52a.13.13,0,0,0,.13.13h0c.26.52-.52,1.56.26,1.69V35c-.13-.52-.26-1.56.25-1.43v-.26a.45.45,0,0,1,.13.26c.39-.26.39,1,.39,1a.48.48,0,0,1,.13-.39c0,.26-.26.91.13.91,0-.13.13-.65,0-.78.13,0,.13.13.26.26V34.3l-.13-.13h0c0-.13-.26-1,.65-.39.51.52,1.16.91,1.68,1.43.13.12.65.64.78.64s-.13-.13,0-.26c.64.65,1.42,1.17,2.2,1.82.39.25,1,.38,1.29.64h-.13a1,1,0,0,1,.65.26v-.26a2.84,2.84,0,0,1,.39.65c.64-.13-1.56-2.72-1.56-2.85-.64-1.16-1.55-1.94-2.2-3.1v-.13c-.26-.13-.51-.39-.26-.52h0s-.64-.39-.38-.39c-.13-.13-1-.78-.52-.65-.13-.13-1-.77-.91-.9s.52.39.78.51c0-.12-1.42-2.07-.91-1.81H33a.4.4,0,0,0-.26-.13s0,.26-.26.13l.13-.13H32.5c0-.13-.25-.51-.12-.64s.77.38.9.51c0-.26-.39-.38-.52-.64s.78.64.78.77a.13.13,0,0,1-.13-.13c.26.13.52.52.65.65a3.11,3.11,0,0,0-.91-.39,5.6,5.6,0,0,1,1.3.91c-.13,0-.13,0-.26-.13h0l.13.13c.13,0,.26.13.39.26a2.45,2.45,0,0,0-1-.26h0c.13.13.52,0,.65.26a.45.45,0,0,1,.13.26h0c-.13-.13-.13-.13-.13-.26.39,0,.77.52,1,.77h0a.41.41,0,0,0-.13-.25c.13,0,.26.12.52.12l-.13-.12c.39,0,.52.25.78.51h.26c0-.26-.13-.26-.39-.51a5.73,5.73,0,0,1,1.16.38l.26-.26c-.13,0-.26-.12-.39-.12s-.64-.13-.77-.13h.13L35.87,30c.13,0,.39,0,.39.13s.13,0,.13,0c0-.52-.52-.52-.78-.52h0l.39.26c-.26.13-1-.52-1-.78-.13,0-1.81-1.42-1.68-1.68-.13-.13-.39-.26,0,0h0c.13-.13.39.26.39.26s-.26-.26-.39-.26h0a.4.4,0,0,0,.26.13c0,.13.39.39.91.52h-.13a1,1,0,0,1,.51.25,2.2,2.2,0,0,0,.65.26c-.26,0-.39-.13-.65-.26s-.25-.12-.51-.12h0a16.12,16.12,0,0,0,2.59,1.16h.38C37,29.12,36,29,36,28.6c.13,0,.39.26.52.26.13-.39-1.3-1-1.43-.9h0c.13.13.13.13.26.13h-.13c-.13.25.39.25.39.25h-.13s.13,0,0,.13-1.29-.64-1.42-.64c.13,0,.13,0,.13-.13a2.84,2.84,0,0,0-.65-.39c0-.13.39-.26.39-.26a.86.86,0,0,1,.78.13c.51.26,1.16.39,1.29,1,.39.38.78,0,.26-.39-.26-.26-.65-.65-1-.65a1.79,1.79,0,0,0,.52.39,6.94,6.94,0,0,1-1.68-.91c-.13-.26.13-.26.26-.39.64-.38,1.16-.77,1.81-1.16a18.1,18.1,0,0,0,2.07-1.3c.39,0,.91-.77,1-1s.25-.39.38-.52,0-.26.26-.39A.13.13,0,0,0,40,22c0-.13.13-.64.13-.77s0,.13.13.25l.13-.12C40,21.87,39.88,21.48,39.88,21.48ZM15.29,16.05h0l.13.13Zm.26.26Zm.9.64c-.25-.25-.51-.38-.64-.51.13,0,.64.51.64.51Zm1.43.91c-.26-.26.13,0,.13.13a.13.13,0,0,1-.13-.13Zm.39.39a.65.65,0,0,1,.51.26C18.53,18.38,18.4,18.38,18.27,18.25Zm.51.26c-.13-.13.26.13,0,0Zm1.56,1.16Zm-6.47,2.07h0c0-.13.13-.13.25-.26A.27.27,0,0,1,13.87,21.74Zm20.84,8.55c0,.13.51.13.64.51-.52-.13-.77-.51-1.16-.77h0c0,.13.26.26.26.39.26.25-.39-.26-.39-.39h0v.13c-.13-.13-.13-.13,0-.13V29.9c0-.13-.13-.26,0,0V30h0c0-.13-.39-.52-.39-.65C33.93,29.77,34.45,29.9,34.71,30.29Zm-1-.78c-.13.13-.39-.39-.52-.52C33.41,29.12,33.41,29.38,33.67,29.51Zm-1.29-1.42c.12-.13.51.51.51.64-.13-.13-.13,0,0,0C32.76,28.6,32.25,28.22,32.38,28.09Zm2.71,1h0c.13.13-.13,0-.26-.13A.4.4,0,0,1,35.09,29.12Zm.91-11h0c.13,0,.13.26-.13.13C36,18.38,36,18.25,36,18.12Zm-.39.78h.13c-.13-.13,0-.26.13-.26,0,.26-.26.39-.39.51S35.48,18.9,35.61,18.9Zm-.78.9h0c.13-.26.39-.65.78-.52-.26.26-.52.91-.9.91C34.58,20.06,34.71,19.93,34.83,19.8ZM33.41,22c.13,0,.91-.39,1-.26a4.13,4.13,0,0,1-1.17.39C33.28,22,33.41,21.87,33.41,22Zm-3,.13c0,.13-.26.13-.13,0C30.3,22.26,30.3,22.13,30.43,22.13Zm1,.39c-.26.26-.91.52-.91.91-.26,0-.38-.13-.51,0,0-.39-.39-.39-.39-.78A4,4,0,0,1,31.47,22.52Zm-1,2.72c-.13,0-.26-.13,0-.13,0-.13-.26-.26-.26-.39v.13c-.12,0-.12-.52,0-.52s.39.78.26.91Zm-7.5-7.9c.13,0,.13.13.13.26C22.8,17.34,22.8,17.34,22.93,17.34Zm-.39-.52a4.86,4.86,0,0,0,.9,1.3h-.13c0,.13.26.13.26.26s.65.77.91,1.16a11.3,11.3,0,0,0,1.16,1.3l-.38.13c-.13-.26-.39-.52-.39-.65-.26-.26-.91-1.68-1.17-1.68L25.26,21,25,21.1h-.26c-.39-.26-.78-.65-.52-.65h0s-.39-.39-.39-.52a3,3,0,0,1-.77-1.42C22.93,18,22.15,17.34,22.54,16.82Zm1.94,4.41h0C24.35,21.1,24.48,21.1,24.48,21.23ZM24,20.84l.26.26L24,21h.13Zm-3-1c.13-.26.26.26.26.26S21.11,19.8,21,19.8Zm0,3.11h0a.13.13,0,0,1,.13.13H21Zm-.64-.39h0c.13,0,.13.13.26.13a.25.25,0,0,1-.39.13C20.34,22.65,20.34,22.65,20.34,22.52Zm-5.44-.39ZM19,26.53v.13H17.49c-.13,0-.13.13-.13.39s-.13.39.13.39c.65,0,.91.13.91.39s-.39.77-1.3,1.55l-1.68,1.68a1,1,0,0,1-.65.26V24.07c.13,0,.26.13.39.13h0c0-.13-.26-.26-.39-.39v-.38h0s.39.38.52.26a4.6,4.6,0,0,0,1.29.77,4.81,4.81,0,0,1,1.43.65c-.39-.13-.78-.13-1.17-.26h0c.26.26.78,0,1,.26.26,0,1.94.65,1.29.78C19.3,26,19.3,26.53,19,26.53Zm.39-.9a6.68,6.68,0,0,0-.9-.39,14.44,14.44,0,0,1-2.08-.91,12.35,12.35,0,0,0-1.68-1.16v-.91h.91a9.43,9.43,0,0,1,3.23.78.45.45,0,0,1-.38-.13h0c-.13.26,1.42.52,1.55.65a.24.24,0,0,1-.39,0h0c0,.13.26.25.26.25-.13.39-.52.91-.39,1.43C19.3,25.5,19.56,25.5,19.43,25.63Zm.26,1V26.4l.13-.51.26-.65c.26-.78.26-1.3.9-.65,0-.13-.12-.26-.12-.39H21c0,.26.13.91.13,1.56a4.11,4.11,0,0,0,.13.9Zm1.68-3.75c-.13,0-.26,0-.26-.13s.39,0,.39.13S21.5,22.91,21.37,22.91Zm.26-5.31c-.13-.26-.77-1.55-.65-1.94h0c.13,0,0-.13,0-.39.65.13.65,2.07,1.3,2.2,0-.13,0-.13-.13-.26a1.91,1.91,0,0,1,.26.52h-.13c0,.13.52.78.52,1.17h-.13c.26.77.77,1.16,1,1.81a5.26,5.26,0,0,1-1.81-1.56c.13,0,.13.26.26.26h0L22,19.28c.13,0,.13.13.26.13h0A15,15,0,0,1,21.63,17.6ZM22,19.8c-.13-.13-.26-.26-.26-.39C21.89,19.54,21.89,19.67,22,19.8Zm.13.91a2.2,2.2,0,0,1-.26-.65.48.48,0,0,1,.39.13c.26.26.52.39.65.52a1.3,1.3,0,0,0-.65-.52L22,19.93a.45.45,0,0,0-.13-.26,5.16,5.16,0,0,1,1.42.91s-.12.26,0,.26v-.13c.26,0,0,.13.13.13h-.13c-.12,0-.25-.13-.38-.26v.13l-.26-.13Zm2.72,3c-.13.25-.26.64-.52,1.16a9,9,0,0,0-.39,1c-.13.38-.26.64-.39,1a4.6,4.6,0,0,0-.13.78,2,2,0,0,1-.25.9,1.16,1.16,0,0,1-.39-.9,2,2,0,0,1,.26-1c.13-.26.25-.65.38-.9s.26-.65.39-.91a3.31,3.31,0,0,0,.26-.91c-.13.13-.26.13-.39.26a.64.64,0,0,1-.39.13l.52-.9a4.87,4.87,0,0,0,1.3-.78,1.31,1.31,0,0,1,.13.39v.13C25.13,23.17,25,23.3,24.87,23.69Zm4.66,10.09v0Zm0-.26h0v-.39Q29.73,33.52,29.53,33.52ZM29.4,28a16.49,16.49,0,0,0-2.72.13,3.43,3.43,0,0,1-.91.13,1,1,0,0,1-.51-.13c-.26-.13-.13-.39-.13-.52a1.88,1.88,0,0,1,.51-.39,5.65,5.65,0,0,1,.91-.78,6.27,6.27,0,0,0,1.3-1.55c0-.13.12-.26.12-.39a1,1,0,0,0,.13-.52.34.34,0,0,0-.38-.38,1.32,1.32,0,0,0-.78.25,3.12,3.12,0,0,1-1.3.26h-.38a2.42,2.42,0,0,1,1-.9,3,3,0,0,1,1.43-.39.86.86,0,0,1,.9.52,1.16,1.16,0,0,1,.13.64,3.17,3.17,0,0,1-.65,1.95c-.38.51-.77.77-1.16,1.29.52,0,1,.13,1.81.13h.52c.26,0,.39.13.65.13a.45.45,0,0,1,.26.13c.12.13.12.13.12.26v.39A2.22,2.22,0,0,1,29.4,28ZM30.69,34c-.13,0,.13-.26,0,0Zm.39-2.85h0c-.13,0-.13,0-.13-.26C31.08,31.06,31.08,31.06,31.08,31.19Zm0-.26c-.26,0-.13-.38-.26-.51.26,0,.26.13.26.38C31,30.8,31.08,30.67,31.08,30.93Zm5.57,6a.13.13,0,0,0,.13.13c-.52-.13-.65-.65-.78-1A2.33,2.33,0,0,1,36.65,36.89Zm-4.53-5.44c.13.13,1.16,1.55,1.42,1.43h0c-.26,0-.26-.13-.26-.26l.26.26a5.78,5.78,0,0,1,1.17,1.29c.12.13.25.39.38.52-.26,0-1.29-1-1.16-1.3h.13l-.13-.26a2.14,2.14,0,0,1-.39-.25.12.12,0,0,0-.13.12,3.14,3.14,0,0,1-.78-.64c0,.26,1.43,1.42,1.69,1.68s1,.91,1.42,1.29c-.13.13-.52-.25-.52-.25a4.73,4.73,0,0,1,.91,1.55c-.52-.39-4.66-4.14-4.14-4.66.13,0,.13,0,.26.13V32c.13,0,.25.13.38.26,0-.26-.25-.26-.25-.39,0,.13-.13.13-.26-.13.26.52-.39-.26-.39-.39l.13-.13s-.26-.26-.39-.26v.13c-.26-.39.13-.13.39-.13h0c-.39-.38-.39.13-.39-.51C31.47,30.67,31.86,31.45,32.12,31.45ZM32,30.93c-.39-.13-.39-.38-.52-.64C31.6,30.42,32.12,30.8,32,30.93Zm1.55-2.71s-.65-.26-.52-.39S33.67,28.22,33.54,28.22Zm3-6h0c-.26.26-.91.91-1.17.78-.26.52-1.42.65-1.68,1.16-.39.13-.78.65-1,.78-.25.39-1.29.52-1.68.52a.13.13,0,0,0,.13.13c-.13,0-.39-.52-.52-.39-.13-.26-.64-1.17-.38-1.3a7.13,7.13,0,0,1,1.16-.9l-.26.26h0a2.72,2.72,0,0,0,.78-.52,1.12,1.12,0,0,0,.64-.13.45.45,0,0,0,.26-.13c.13-.26.65-.26.91-.26a7.13,7.13,0,0,1,2.85-.13C36.65,22.13,36.65,22.13,36.52,22.26Zm-.78-2.85c.26,0,1.81.13,1.94.52-.26.13-.64,0-.77,0-.52-.13-1,.26-1.56.13,0-.26.39-.91.65-.78s1.68,0,1.81.39c-.39,0-.77-.26-1.29-.26Z" transform="translate(-6.1 -11)"></path>
  </g>
</svg>
