<?xml version="1.0" encoding="UTF-8"?>
<svg width="18px" height="18px" viewBox="0 0 18 18" version="1.1" xmlns="http://www.w3.org/2000/svg" xmlns:xlink="http://www.w3.org/1999/xlink">
    <!-- Generator: Sketch 52.6 (67491) - http://www.bohemiancoding.com/sketch -->
    <title>stars</title>
    <desc>Created with Sketch.</desc>
    <defs>
        <polygon id="path-1" points="0 0.0381575034 17.9571034 0.0381575034 17.9571034 16.927347 0 16.927347"></polygon>
    </defs>
    <g id="stars" stroke="none" stroke-width="1" fill="none" fill-rule="evenodd">
        <g id="star_overdue" transform="translate(0.000000, 0.500000)">
            <g id="Group-3" transform="translate(0.000000, 0.034509)">
                <mask id="mask-2" fill="white">
                    <use xlink:href="#path-1"></use>
                </mask>
                <g id="Clip-2"></g>
                <path d="M17.8929793,6.35382265 C18.4739448,4.91986538 14.9748414,4.56824145 12.7907034,4.56380983 C12.2833241,3.60272863 10.8094621,0.913023504 9.82415172,0.170254274 C8.72897931,-0.65533547 6.78022069,2.58011325 5.6393931,4.56853205 C3.53787586,4.52080128 -0.561089655,4.81096368 0.0641517241,6.35382265 C0.581048276,7.63013034 2.36808276,9.55846795 3.44649655,10.6505363 C2.78704828,12.5662329 1.67353103,17.0891774 3.37691034,16.9228825 C4.95408276,16.7688654 7.8878069,15.1622201 8.97856552,14.5375064 C10.0693931,15.1622201 13.0031862,16.7688654 14.5802207,16.9228825 C16.283669,17.0891774 15.1701517,12.5662329 14.5107034,10.6505363 C15.5891172,9.55846795 17.3762897,7.63013034 17.8929793,6.35382265" id="Fill-1" fill="#C61836" mask="url(#mask-2)"></path>
            </g>
            <path d="M17.0015517,6.60123803 C17.5243793,5.31061838 14.3752069,4.99422949 12.4094828,4.99016111 C11.9528621,4.12526795 10.6263793,1.70451154 9.73962069,1.03599017 C8.75389655,0.292930342 7.00010345,3.20487051 5.97334483,4.99452009 C4.08196552,4.95143889 0.392931034,5.2126141 0.95562069,6.60123803 C1.42072414,7.74997308 3.02913793,9.48542607 3.99975862,10.4682295 C3.40617241,12.1923491 2.40410345,16.2629774 3.93706897,16.1133919 C5.35651724,15.9747765 7.99693103,14.5287594 8.97858621,13.966597 C9.96031034,14.5287594 12.6007241,15.9747765 14.0201034,16.1133919 C15.5531379,16.2629774 14.551,12.1923491 13.9574828,10.4682295 C14.9280345,9.48542607 16.5365172,7.74997308 17.0015517,6.60123803" id="Fill-4" fill="#FFB6C4"></path>
            <path d="M15.8381586,6.87906453 C16.2851931,5.77559017 13.5926414,5.50504316 11.9119517,5.50162863 C11.5215379,4.76205598 10.3874,2.69234231 9.62926207,2.12080812 C8.78650345,1.48548761 7.28698621,3.97511581 6.40905517,5.50526111 C4.79195172,5.46850043 1.63781379,5.69175256 2.11891724,6.87906453 C2.51664138,7.8612141 3.89174483,9.34500897 4.72167586,10.1853466 C4.21415862,11.6594791 3.35733103,15.1398295 4.66808966,15.0118936 C5.88174483,14.8934021 8.1391931,13.6571244 8.97857241,13.1764021 C9.81795172,13.6571244 12.075469,14.8934021 13.2890552,15.0118936 C14.5998138,15.1398295 13.7429862,11.6594791 13.2355379,10.1853466 C14.065331,9.34500897 15.4405724,7.8612141 15.8381586,6.87906453" id="Fill-6" fill="#FFFFFF"></path>
            <path d="M10.888131,10.4743684 C10.888131,11.4874667 10.1084759,12.3087701 9.14675172,12.3087701 C8.18502759,12.3087701 7.40537241,11.4874667 7.40537241,10.4743684 C7.40537241,9.46127009 8.18502759,8.63996667 9.14675172,8.63996667 C10.1084759,8.63996667 10.888131,9.46127009 10.888131,10.4743684" id="Fill-8" fill="#E53046"></path>
            <path d="M9.14675172,9.00683248 C8.37854483,9.00683248 7.75364828,9.66518291 7.75364828,10.4743538 C7.75364828,11.2835974 8.37854483,11.9418752 9.14675172,11.9418752 C9.91495862,11.9418752 10.5398552,11.2835974 10.5398552,10.4743538 C10.5398552,9.66518291 9.91495862,9.00683248 9.14675172,9.00683248 M9.14675172,12.6756359 C7.99454483,12.6756359 7.05709655,11.6881103 7.05709655,10.4743538 C7.05709655,9.26059744 7.99454483,8.27307179 9.14675172,8.27307179 C10.2989586,8.27307179 11.2364069,9.26059744 11.2364069,10.4743538 C11.2364069,11.6881103 10.2989586,12.6756359 9.14675172,12.6756359" id="Fill-10" fill="#FFFFFF"></path>
            <polygon id="Fill-12" fill="#E53046" points="7.19847586 2.79167607 10.8088897 2.79167607 10.3575793 8.67629145 8.06006207 8.67629145"></polygon>
            <path d="M8.35675172,8.31191026 L10.0384759,8.31191026 L10.4338552,3.15604274 L7.60185517,3.15604274 L8.35675172,8.31191026 Z M10.6766828,9.04065812 L7.76337241,9.04065812 L6.79509655,2.42729487 L11.1838552,2.42729487 L10.6766828,9.04065812 Z" id="Fill-14" fill="#FFFFFF"></path>
        </g>
    </g>
</svg>